<svg xmlns="http://www.w3.org/2000/svg" height="512pt" version="1.1" viewBox="0 0 512 512" width="512pt">

<path d="M 240.14 39.66 C 244.96 43.92 249.53 48.47 254.71 52.31 C 262.52 58.11 269.83 64.53 277.39 70.65 C 280.48 73.37 282.23 77.17 284.41 80.59 C 286.77 84.45 289.69 87.93 292.45 91.51 C 295.93 95.97 297.79 101.41 300.94 106.09 C 308.82 118.26 317.20 130.14 324.05 142.94 C 327.44 149.38 332.07 155.05 335.58 161.42 C 340.91 170.89 347.32 179.69 353.08 188.90 C 359.89 200.08 366.58 211.34 373.73 222.31 C 378.62 229.20 382.50 236.73 387.28 243.70 C 389.97 247.79 392.92 251.77 394.70 256.38 C 389.97 251.08 384.97 245.97 380.96 240.08 C 377.61 235.15 376.35 229.08 372.64 224.37 C 369.53 220.34 366.05 216.60 362.22 213.26 C 361.21 213.78 360.22 214.31 359.23 214.84 C 357.65 213.44 356.06 212.05 354.47 210.66 C 355.32 213.73 356.18 216.80 357.13 219.85 C 355.12 216.58 352.62 213.67 349.81 211.06 C 344.82 204.65 340.96 197.46 336.33 190.79 C 328.48 179.14 321.89 166.69 313.92 155.11 C 308.17 146.46 303.09 137.37 297.11 128.87 C 292.14 121.75 288.29 113.92 283.24 106.85 C 277.60 98.95 273.00 90.39 267.70 82.26 C 259.59 70.31 252.14 57.92 243.96 46.02 C 243.03 45.01 242.28 43.23 240.64 43.52 C 240.30 45.54 240.17 47.58 239.97 49.61 C 239.34 51.16 238.63 52.68 238.01 54.24 C 237.60 49.29 238.28 44.27 240.14 39.66 Z" fill="#d9e6e8" opacity="1.00" stroke="#d9e6e8" stroke-width="0.25" data-index="1"></path>
<path d="M 240.64 43.52 C 242.28 43.23 243.03 45.01 243.96 46.02 C 252.14 57.92 259.59 70.31 267.70 82.26 C 273.00 90.39 277.60 98.95 283.24 106.85 C 288.29 113.92 292.14 121.75 297.11 128.87 C 303.09 137.37 308.17 146.46 313.92 155.11 C 321.89 166.69 328.48 179.14 336.33 190.79 C 340.96 197.46 344.82 204.65 349.81 211.06 C 355.38 221.39 362.29 230.89 368.36 240.91 C 365.50 240.82 362.56 241.00 359.80 240.16 C 357.47 239.13 355.91 236.98 354.15 235.23 C 347.41 231.85 340.65 228.08 335.47 222.50 C 331.58 218.34 326.31 215.69 322.84 211.12 C 318.93 206.66 316.83 200.67 311.82 197.21 C 309.14 195.25 306.69 193.01 304.24 190.78 C 301.54 188.28 297.86 187.27 295.04 184.95 C 291.80 181.77 290.21 177.26 286.74 174.28 C 284.05 171.90 280.51 170.67 278.01 168.07 C 276.13 165.44 275.36 162.19 273.49 159.55 C 270.48 155.24 266.02 152.30 262.17 148.83 C 257.80 144.99 255.64 139.43 252.15 134.89 C 248.58 130.24 246.24 124.80 244.88 119.12 C 243.72 114.09 239.94 110.06 239.18 104.92 C 237.71 93.03 241.27 81.16 239.81 69.27 C 239.06 62.73 240.06 56.17 239.97 49.61 C 240.17 47.58 240.30 45.54 240.64 43.52 Z" fill="#657585" opacity="1.00" stroke="#657585" stroke-width="0.25" data-index="2"></path>
<path d="M 238.01 54.24 C 238.63 52.68 239.34 51.16 239.97 49.61 C 240.06 56.17 239.06 62.73 239.81 69.27 C 241.27 81.16 237.71 93.03 239.18 104.92 C 239.94 110.06 243.72 114.09 244.88 119.12 C 246.24 124.80 248.58 130.24 252.15 134.89 C 255.64 139.43 257.80 144.99 262.17 148.83 C 266.02 152.30 270.48 155.24 273.49 159.55 C 275.36 162.19 276.13 165.44 278.01 168.07 C 280.51 170.67 284.05 171.90 286.74 174.28 C 290.21 177.26 291.80 181.77 295.04 184.95 C 297.86 187.27 301.54 188.28 304.24 190.78 C 306.69 193.01 309.14 195.25 311.82 197.21 C 316.83 200.67 318.93 206.66 322.84 211.12 C 326.31 215.69 331.58 218.34 335.47 222.50 C 340.65 228.08 347.41 231.85 354.15 235.23 C 355.91 236.98 357.47 239.13 359.80 240.16 C 362.56 241.00 365.50 240.82 368.36 240.91 C 379.40 257.60 389.85 274.67 400.36 291.70 L 400.76 292.40 C 396.00 291.79 394.24 286.77 391.42 283.59 C 389.21 280.31 385.88 278.14 382.40 276.42 C 378.21 274.42 376.84 269.44 373.09 266.92 C 370.26 264.98 366.86 263.98 364.23 261.75 C 361.16 258.78 359.39 254.68 356.02 251.99 C 352.80 249.41 348.89 247.89 345.60 245.40 C 341.79 242.57 339.02 238.64 335.51 235.49 C 332.88 233.06 329.87 231.12 327.07 228.91 C 321.99 225.01 318.50 219.48 313.48 215.52 C 309.23 212.15 304.88 208.76 301.83 204.20 C 297.89 198.23 292.17 193.82 287.62 188.37 C 283.90 184.08 280.13 179.64 275.08 176.86 C 270.61 174.15 265.44 173.07 260.61 171.23 C 256.68 169.94 255.74 165.46 253.95 162.24 C 251.22 160.61 248.83 158.52 246.69 156.20 C 244.65 153.96 241.98 152.32 240.24 149.83 C 238.49 145.78 238.13 141.30 236.93 137.08 C 235.54 131.28 232.93 125.82 231.99 119.92 C 231.21 115.40 232.65 110.95 233.53 106.56 C 235.06 99.60 234.93 92.39 236.50 85.43 C 237.53 80.94 237.78 76.33 237.79 71.73 C 238.29 66.43 238.31 61.11 237.86 55.81 C 237.90 55.42 237.98 54.63 238.01 54.24 Z" fill="#607d91" opacity="1.00" stroke="#607d91" stroke-width="0.25" data-index="3" style="opacity: 1;"></path>
<path d="M 229.39 92.68 C 232.16 80.38 233.76 67.77 237.86 55.81 C 238.31 61.11 238.29 66.43 237.79 71.73 C 236.28 76.28 234.95 80.91 234.27 85.67 C 229.07 97.57 228.71 110.69 226.12 123.24 C 224.39 134.47 221.07 145.40 219.82 156.71 C 217.25 169.43 214.22 182.20 214.28 195.26 C 213.96 197.82 216.46 199.10 218.05 200.60 C 215.19 201.47 212.23 202.07 209.24 202.06 C 209.07 195.96 209.72 189.86 209.73 183.76 C 212.62 169.06 215.11 154.27 218.91 139.76 C 222.90 124.18 225.45 108.27 229.39 92.68 Z" fill="#32aec9" opacity="1.00" stroke="#32aec9" stroke-width="0.25" data-index="4"></path>
<path d="M 216.07 71.92 C 216.40 70.44 217.72 69.55 218.73 68.53 C 218.58 74.08 216.74 79.37 215.58 84.75 C 214.42 89.57 213.71 94.51 212.14 99.22 C 211.79 97.65 211.37 96.09 211.02 94.51 C 212.46 86.93 214.43 79.46 216.07 71.92 Z" fill="#468ab7" opacity="1.00" stroke="#468ab7" stroke-width="0.25" data-index="5"></path>
<path d="M 212.48 81.34 C 213.28 78.07 214.29 74.81 216.07 71.92 C 214.43 79.46 212.46 86.93 211.02 94.51 C 210.64 95.95 210.21 97.38 209.79 98.81 C 204.29 112.32 200.84 126.55 196.70 140.51 C 189.38 164.46 182.88 188.65 175.74 212.65 C 172.16 222.63 169.36 232.86 165.94 242.89 C 165.56 243.92 165.17 244.96 164.77 245.99 C 164.38 245.42 163.60 244.30 163.21 243.73 C 163.87 241.33 164.47 238.92 165.04 236.50 C 167.55 228.05 169.32 219.39 172.18 211.05 C 175.23 202.14 177.84 193.06 179.68 183.82 C 179.85 184.34 180.17 185.36 180.34 185.88 C 187.21 158.23 196.90 131.40 204.48 103.96 C 206.42 98.38 208.24 92.73 208.87 86.83 C 206.51 89.85 204.20 92.90 201.90 95.96 C 203.57 90.73 207.11 86.46 209.78 81.74 C 210.68 81.61 211.58 81.48 212.48 81.34 Z" fill="#c1e6f3" opacity="1.00" stroke="#c1e6f3" stroke-width="0.25" data-index="6"></path>
<path d="M 234.27 85.67 C 234.95 80.91 236.28 76.28 237.79 71.73 C 237.78 76.33 237.53 80.94 236.50 85.43 C 234.93 92.39 235.06 99.60 233.53 106.56 C 232.65 110.95 231.21 115.40 231.99 119.92 C 232.93 125.82 235.54 131.28 236.93 137.08 C 238.13 141.30 238.49 145.78 240.24 149.83 C 241.98 152.32 244.65 153.96 246.69 156.20 C 248.83 158.52 251.22 160.61 253.95 162.24 C 255.74 165.46 256.68 169.94 260.61 171.23 C 265.44 173.07 270.61 174.15 275.08 176.86 C 280.13 179.64 283.90 184.08 287.62 188.37 C 292.17 193.82 297.89 198.23 301.83 204.20 C 304.88 208.76 309.23 212.15 313.48 215.52 C 318.50 219.48 321.99 225.01 327.07 228.91 C 329.87 231.12 332.88 233.06 335.51 235.49 C 339.02 238.64 341.79 242.57 345.60 245.40 C 348.89 247.89 352.80 249.41 356.02 251.99 C 359.39 254.68 361.16 258.78 364.23 261.75 C 366.86 263.98 370.26 264.98 373.09 266.92 C 376.84 269.44 378.21 274.42 382.40 276.42 C 385.88 278.14 389.21 280.31 391.42 283.59 C 394.24 286.77 396.00 291.79 400.76 292.40 C 406.08 300.04 410.44 308.32 416.06 315.75 C 416.82 317.45 417.49 319.19 418.27 320.89 C 411.85 317.15 405.66 312.88 400.74 307.26 C 396.43 302.25 391.58 297.76 387.03 292.97 C 379.38 284.24 369.03 278.37 361.79 269.22 C 357.98 264.32 353.25 260.31 348.23 256.72 C 344.46 253.45 340.95 249.82 336.48 247.47 C 330.09 244.07 326.32 237.65 320.93 233.06 C 315.59 228.39 311.02 222.97 306.21 217.78 C 303.02 214.28 299.12 211.54 295.73 208.26 C 292.76 205.45 291.23 201.52 288.45 198.57 C 285.26 195.97 280.92 195.08 278.07 191.99 C 274.59 188.45 271.47 184.04 266.50 182.54 C 261.20 181.41 255.75 183.98 250.48 182.42 C 246.69 181.17 243.29 178.97 239.53 177.64 C 236.09 176.24 231.99 175.54 229.65 172.36 C 226.61 168.56 224.00 164.12 223.59 159.17 C 223.15 154.55 224.50 150.04 225.37 145.56 C 226.97 137.93 227.73 130.16 228.48 122.41 C 229.59 110.02 234.30 98.19 234.27 85.67 Z" fill="#5982a0" opacity="1.00" stroke="#5982a0" stroke-width="0.25" data-index="7"></path>
<path d="M 234.27 85.67 C 234.30 98.19 229.59 110.02 228.48 122.41 C 227.73 130.16 226.97 137.93 225.37 145.56 C 224.50 150.04 223.15 154.55 223.59 159.17 C 224.00 164.12 226.61 168.56 229.65 172.36 C 231.99 175.54 236.09 176.24 239.53 177.64 C 243.29 178.97 246.69 181.17 250.48 182.42 C 255.75 183.98 261.20 181.41 266.50 182.54 C 271.47 184.04 274.59 188.45 278.07 191.99 C 280.92 195.08 285.26 195.97 288.45 198.57 C 291.23 201.52 292.76 205.45 295.73 208.26 C 299.12 211.54 303.02 214.28 306.21 217.78 C 311.02 222.97 315.59 228.39 320.93 233.06 C 326.32 237.65 330.09 244.07 336.48 247.47 C 340.95 249.82 344.46 253.45 348.23 256.72 C 353.25 260.31 357.98 264.32 361.79 269.22 C 369.03 278.37 379.38 284.24 387.03 292.97 C 391.58 297.76 396.43 302.25 400.74 307.26 C 405.66 312.88 411.85 317.15 418.27 320.89 C 421.39 325.36 424.06 330.12 427.24 334.54 C 420.04 332.59 416.27 325.41 409.96 321.87 C 404.65 317.25 399.62 312.32 394.27 307.74 C 385.63 300.37 377.76 292.16 369.26 284.64 C 353.81 269.43 337.53 255.10 321.74 240.26 C 319.36 238.03 317.11 235.67 314.96 233.22 C 310.98 226.07 304.26 221.14 298.74 215.27 C 290.81 208.55 283.60 201.05 275.83 194.16 C 272.10 190.88 268.85 185.19 263.12 186.02 C 254.24 186.82 245.81 189.89 237.27 192.23 C 235.54 191.99 233.83 191.67 232.12 191.33 C 229.48 186.89 224.27 184.05 223.44 178.63 C 221.96 171.38 220.69 164.06 219.82 156.71 C 221.07 145.40 224.39 134.47 226.12 123.24 C 228.71 110.69 229.07 97.57 234.27 85.67 Z" fill="#4c8dad" opacity="1.00" stroke="#4c8dad" stroke-width="0.25" data-index="8"></path>
<path d="M 201.90 95.96 C 204.20 92.90 206.51 89.85 208.87 86.83 C 208.24 92.73 206.42 98.38 204.48 103.96 C 202.43 105.49 200.43 107.10 198.63 108.92 C 194.29 113.23 190.92 118.36 187.07 123.08 C 182.98 128.12 182.09 134.93 177.94 139.93 C 175.38 143.13 172.69 146.30 171.16 150.16 C 169.47 154.27 167.50 158.27 164.85 161.86 C 160.19 168.17 157.37 175.57 153.09 182.12 C 150.26 186.56 146.71 190.51 144.11 195.10 C 138.60 204.89 134.02 215.25 127.31 224.30 C 122.56 230.66 119.04 237.84 114.08 244.05 C 111.15 247.72 109.16 251.99 107.29 256.26 C 103.23 265.41 96.88 273.24 91.91 281.86 C 85.61 293.10 78.08 303.59 72.06 315.00 C 68.03 322.70 61.75 328.89 57.53 336.47 C 53.85 343.01 49.42 349.11 45.90 355.74 C 45.40 355.58 44.42 355.25 43.92 355.09 C 45.20 348.86 49.43 343.91 52.53 338.54 C 56.22 332.21 60.69 326.35 63.80 319.69 C 70.61 307.74 78.75 296.62 85.74 284.78 C 94.27 270.83 103.10 257.06 111.33 242.94 C 115.71 234.43 121.44 226.74 126.47 218.63 C 134.34 205.46 142.18 192.28 150.18 179.19 C 164.53 157.10 178.05 134.48 192.13 112.23 C 195.53 106.89 198.25 101.14 201.90 95.96 Z" fill="#36b0ca" opacity="1.00" stroke="#36b0ca" stroke-width="0.25" data-index="9"></path>
<path d="M 211.02 94.51 C 211.37 96.09 211.79 97.65 212.14 99.22 C 208.95 114.57 205.51 129.88 202.43 145.26 C 198.09 168.15 192.88 190.88 186.47 213.28 C 182.70 228.31 177.41 242.89 173.58 257.90 C 169.92 271.40 166.26 284.90 161.93 298.20 C 161.02 301.31 159.49 304.72 161.32 307.82 C 160.41 308.43 159.48 309.00 158.53 309.56 C 157.77 307.59 157.60 305.44 158.28 303.42 C 164.95 281.39 171.24 259.22 177.10 236.95 C 183.09 218.38 188.08 199.48 192.58 180.50 C 195.67 169.92 197.19 158.98 199.47 148.22 C 203.00 131.77 206.55 115.32 209.79 98.81 C 210.21 97.38 210.64 95.95 211.02 94.51 Z" fill="#2689c5" opacity="1.00" stroke="#2689c5" stroke-width="0.25" data-index="10" style="opacity: 1;"></path>
<path d="M 196.70 140.51 C 200.84 126.55 204.29 112.32 209.79 98.81 C 206.55 115.32 203.00 131.77 199.47 148.22 C 198.68 145.60 197.70 143.05 196.70 140.51 Z" fill="#32c2f2" opacity="1.00" stroke="#32c2f2" stroke-width="0.25" data-index="11"></path>
<path d="M 198.63 108.92 C 200.43 107.10 202.43 105.49 204.48 103.96 C 196.90 131.40 187.21 158.23 180.34 185.88 C 180.17 185.36 179.85 184.34 179.68 183.82 C 180.91 177.02 182.71 170.34 184.72 163.73 C 185.68 160.69 186.01 157.50 185.80 154.33 C 187.65 149.55 188.86 144.37 188.23 139.22 C 188.07 136.46 187.18 133.42 188.72 130.88 C 191.24 126.40 195.08 122.59 196.24 117.42 C 198.48 115.14 199.40 112.05 198.63 108.92 Z" fill="#6e8593" opacity="1.00" stroke="#6e8593" stroke-width="0.25" data-index="12"></path>
<path d="M 187.07 123.08 C 190.92 118.36 194.29 113.23 198.63 108.92 C 199.40 112.05 198.48 115.14 196.24 117.42 C 192.31 120.47 188.99 124.28 186.90 128.82 C 183.76 135.22 180.66 141.69 176.49 147.51 C 172.29 153.30 170.17 160.24 166.26 166.20 C 163.28 170.87 160.03 175.37 157.12 180.09 C 151.45 189.51 143.38 197.74 140.63 208.67 C 138.62 217.00 132.87 223.55 128.99 231.00 C 125.53 237.47 120.59 243.13 118.17 250.15 C 116.42 255.31 112.28 259.10 110.04 264.00 C 105.16 275.15 96.91 284.59 93.05 296.22 C 90.02 303.74 87.47 311.76 81.92 317.88 C 78.26 322.45 77.32 328.43 74.42 333.43 C 69.45 342.12 67.45 352.31 61.34 360.38 C 58.78 363.62 56.70 367.18 54.65 370.75 C 52.81 374.04 49.51 376.14 47.43 379.24 C 47.54 381.70 48.34 384.09 48.37 386.56 C 46.73 389.09 44.20 390.95 42.78 393.64 C 41.70 395.74 41.02 398.02 40.27 400.26 C 39.62 399.88 38.31 399.12 37.66 398.75 C 39.65 384.18 41.08 369.52 43.92 355.09 C 44.42 355.25 45.40 355.58 45.90 355.74 C 49.42 349.11 53.85 343.01 57.53 336.47 C 61.75 328.89 68.03 322.70 72.06 315.00 C 78.08 303.59 85.61 293.10 91.91 281.86 C 96.88 273.24 103.23 265.41 107.29 256.26 C 109.16 251.99 111.15 247.72 114.08 244.05 C 119.04 237.84 122.56 230.66 127.31 224.30 C 134.02 215.25 138.60 204.89 144.11 195.10 C 146.71 190.51 150.26 186.56 153.09 182.12 C 157.37 175.57 160.19 168.17 164.85 161.86 C 167.50 158.27 169.47 154.27 171.16 150.16 C 172.69 146.30 175.38 143.13 177.94 139.93 C 182.09 134.93 182.98 128.12 187.07 123.08 Z" fill="#5192b2" opacity="1.00" stroke="#5192b2" stroke-width="0.25" data-index="13"></path>
<path d="M 186.90 128.82 C 188.99 124.28 192.31 120.47 196.24 117.42 C 195.08 122.59 191.24 126.40 188.72 130.88 C 187.18 133.42 188.07 136.46 188.23 139.22 C 188.86 144.37 187.65 149.55 185.80 154.33 C 181.32 160.64 181.69 168.92 177.35 175.28 C 175.58 178.07 173.27 180.45 170.98 182.82 C 167.77 182.26 164.03 182.01 161.48 184.45 C 157.70 187.97 154.08 191.78 151.13 196.04 C 148.90 200.85 148.59 206.57 144.74 210.59 C 142.44 217.07 142.70 224.61 138.20 230.17 C 134.24 235.29 132.61 241.68 129.29 247.17 C 126.00 252.70 123.66 258.74 119.97 264.02 C 116.87 268.32 116.40 273.91 113.16 278.12 C 109.88 282.57 106.14 286.73 103.66 291.72 C 100.35 297.83 99.42 304.91 95.97 310.96 C 93.76 314.96 90.72 318.50 89.07 322.80 C 87.21 327.65 86.38 332.82 84.55 337.69 C 83.24 341.39 81.21 344.76 79.53 348.29 C 79.07 348.02 78.16 347.49 77.70 347.22 C 78.11 341.43 81.00 336.21 81.73 330.48 C 82.21 326.95 82.73 323.43 83.51 319.95 C 82.98 319.26 82.45 318.57 81.92 317.88 C 87.47 311.76 90.02 303.74 93.05 296.22 C 96.91 284.59 105.16 275.15 110.04 264.00 C 112.28 259.10 116.42 255.31 118.17 250.15 C 120.59 243.13 125.53 237.47 128.99 231.00 C 132.87 223.55 138.62 217.00 140.63 208.67 C 143.38 197.74 151.45 189.51 157.12 180.09 C 160.03 175.37 163.28 170.87 166.26 166.20 C 170.17 160.24 172.29 153.30 176.49 147.51 C 180.66 141.69 183.76 135.22 186.90 128.82 Z" fill="#5986a3" opacity="1.00" stroke="#5986a3" stroke-width="0.25" data-index="14"></path>
<path d="M 175.74 212.65 C 182.88 188.65 189.38 164.46 196.70 140.51 C 197.70 143.05 198.68 145.60 199.47 148.22 C 197.19 158.98 195.67 169.92 192.58 180.50 C 188.08 199.48 183.09 218.38 177.10 236.95 C 174.48 241.81 171.81 246.65 169.86 251.83 C 167.94 257.23 163.06 261.05 161.70 266.69 C 160.20 272.49 160.26 278.61 158.26 284.30 C 156.09 290.48 153.60 296.60 150.12 302.17 C 151.52 293.26 153.90 284.56 156.91 276.07 C 159.66 265.97 162.67 255.95 165.58 245.90 C 170.97 238.04 174.82 229.12 176.35 219.69 C 176.60 217.33 176.10 214.98 175.74 212.65 Z" fill="#41e0fa" opacity="1.00" stroke="#41e0fa" stroke-width="0.25" data-index="15"></path>
<path d="M 177.35 175.28 C 181.69 168.92 181.32 160.64 185.80 154.33 C 186.01 157.50 185.68 160.69 184.72 163.73 C 182.71 170.34 180.91 177.02 179.68 183.82 C 177.84 193.06 175.23 202.14 172.18 211.05 C 169.32 219.39 167.55 228.05 165.04 236.50 C 164.06 232.58 162.75 228.76 161.39 224.96 C 159.06 223.95 156.24 223.48 154.51 221.48 C 151.47 216.75 152.57 210.90 153.35 205.69 C 154.08 201.73 154.26 197.27 157.12 194.13 C 161.59 188.76 168.96 187.66 174.33 183.49 C 173.49 183.32 171.82 182.99 170.98 182.82 C 173.27 180.45 175.58 178.07 177.35 175.28 Z" fill="#627c91" opacity="1.00" stroke="#627c91" stroke-width="0.25" data-index="16"></path>
<path d="M 214.28 195.26 C 214.22 182.20 217.25 169.43 219.82 156.71 C 220.69 164.06 221.96 171.38 223.44 178.63 C 224.27 184.05 229.48 186.89 232.12 191.33 C 233.83 191.67 235.54 191.99 237.27 192.23 C 231.29 193.94 225.33 195.79 219.67 198.37 C 220.31 198.58 221.60 198.98 222.25 199.18 C 220.84 199.64 219.45 200.14 218.05 200.60 C 216.46 199.10 213.96 197.82 214.28 195.26 Z" fill="#5199b7" opacity="1.00" stroke="#5199b7" stroke-width="0.25" data-index="17"></path>
<path d="M 161.48 184.45 C 164.03 182.01 167.77 182.26 170.98 182.82 C 171.82 182.99 173.49 183.32 174.33 183.49 C 168.96 187.66 161.59 188.76 157.12 194.13 C 154.26 197.27 154.08 201.73 153.35 205.69 C 152.57 210.90 151.47 216.75 154.51 221.48 C 156.24 223.48 159.06 223.95 161.39 224.96 C 162.75 228.76 164.06 232.58 165.04 236.50 C 164.47 238.92 163.87 241.33 163.21 243.73 C 157.76 261.17 153.72 279.00 148.30 296.45 C 143.34 291.98 145.39 284.82 142.60 279.33 C 140.95 276.18 140.35 272.65 141.58 269.24 C 138.95 266.78 137.33 263.55 137.09 259.93 C 132.75 262.60 128.94 266.12 126.91 270.89 C 124.90 272.47 122.52 273.81 121.27 276.13 C 119.63 279.24 118.76 282.77 116.58 285.58 C 114.22 288.58 111.39 291.21 109.39 294.50 C 104.99 301.20 103.35 309.26 98.98 315.98 C 95.45 321.50 95.01 328.18 93.92 334.46 C 92.82 341.27 90.45 347.77 88.43 354.34 C 86.27 360.18 85.63 366.40 85.53 372.58 C 84.13 372.33 82.74 372.09 81.34 371.84 C 82.14 363.93 80.75 356.08 79.53 348.29 C 81.21 344.76 83.24 341.39 84.55 337.69 C 86.38 332.82 87.21 327.65 89.07 322.80 C 90.72 318.50 93.76 314.96 95.97 310.96 C 99.42 304.91 100.35 297.83 103.66 291.72 C 106.14 286.73 109.88 282.57 113.16 278.12 C 116.40 273.91 116.87 268.32 119.97 264.02 C 123.66 258.74 126.00 252.70 129.29 247.17 C 132.61 241.68 134.24 235.29 138.20 230.17 C 142.70 224.61 142.44 217.07 144.74 210.59 C 148.59 206.57 148.90 200.85 151.13 196.04 C 154.08 191.78 157.70 187.97 161.48 184.45 Z" fill="#597e9b" opacity="1.00" stroke="#597e9b" stroke-width="0.25" data-index="18" style="opacity: 1;"></path>
<path d="M 205.50 200.38 C 206.77 194.81 207.53 189.07 209.73 183.76 C 209.72 189.86 209.07 195.96 209.24 202.06 C 212.23 202.07 215.19 201.47 218.05 200.60 C 219.45 200.14 220.84 199.64 222.25 199.18 C 232.18 195.87 242.36 193.44 252.38 190.43 C 256.83 189.22 261.45 186.64 266.14 188.20 C 257.94 189.73 250.19 192.86 242.16 195.00 C 232.19 197.52 222.67 201.53 212.57 203.59 C 209.52 203.98 208.62 207.14 207.43 209.48 C 211.99 209.74 216.53 209.06 220.89 207.74 C 230.55 204.85 240.46 202.92 250.10 199.93 C 254.28 198.71 258.41 197.22 262.74 196.57 C 266.91 195.97 271.05 197.10 275.13 197.85 C 287.34 208.88 299.00 220.53 311.93 230.74 C 311.37 231.07 310.25 231.72 309.69 232.04 C 312.76 235.12 315.72 238.32 318.35 241.78 C 317.24 241.48 316.13 241.17 315.04 240.84 C 310.94 237.28 307.06 233.44 302.66 230.22 C 292.92 221.34 283.29 212.34 273.54 203.47 C 271.15 201.39 269.12 198.44 265.99 197.52 C 258.16 197.91 250.92 201.36 243.39 203.22 C 233.02 205.76 222.61 208.19 212.42 211.38 C 209.92 211.99 206.62 213.14 204.57 210.96 C 204.10 207.41 204.80 203.85 205.50 200.38 Z" fill="#5cd6e6" opacity="1.00" stroke="#5cd6e6" stroke-width="0.25" data-index="19"></path>
<path d="M 237.27 192.23 C 245.81 189.89 254.24 186.82 263.12 186.02 C 268.85 185.19 272.10 190.88 275.83 194.16 C 283.60 201.05 290.81 208.55 298.74 215.27 C 304.26 221.14 310.98 226.07 314.96 233.22 C 313.97 232.37 312.94 231.56 311.93 230.74 C 299.00 220.53 287.34 208.88 275.13 197.85 C 271.93 194.82 269.13 191.42 266.14 188.20 C 261.45 186.64 256.83 189.22 252.38 190.43 C 242.36 193.44 232.18 195.87 222.25 199.18 C 221.60 198.98 220.31 198.58 219.67 198.37 C 225.33 195.79 231.29 193.94 237.27 192.23 Z" fill="#3294ba" opacity="1.00" stroke="#3294ba" stroke-width="0.25" data-index="20"></path>
<path d="M 242.16 195.00 C 250.19 192.86 257.94 189.73 266.14 188.20 C 269.13 191.42 271.93 194.82 275.13 197.85 C 271.05 197.10 266.91 195.97 262.74 196.57 C 258.41 197.22 254.28 198.71 250.10 199.93 C 240.46 202.92 230.55 204.85 220.89 207.74 C 216.53 209.06 211.99 209.74 207.43 209.48 C 208.62 207.14 209.52 203.98 212.57 203.59 C 222.67 201.53 232.19 197.52 242.16 195.00 Z" fill="#13d0f9" opacity="1.00" stroke="#13d0f9" stroke-width="0.25" data-index="21"></path>
<path d="M 349.81 211.06 C 352.62 213.67 355.12 216.58 357.13 219.85 C 356.18 216.80 355.32 213.73 354.47 210.66 C 356.06 212.05 357.65 213.44 359.23 214.84 C 360.22 214.31 361.21 213.78 362.22 213.26 C 366.05 216.60 369.53 220.34 372.64 224.37 C 376.35 229.08 377.61 235.15 380.96 240.08 C 384.97 245.97 389.97 251.08 394.70 256.38 C 400.00 263.26 403.62 271.27 408.51 278.45 C 413.42 285.44 416.69 293.41 421.56 300.43 C 425.08 306.62 429.42 312.40 432.01 319.09 C 426.79 312.90 422.75 305.61 416.29 300.56 C 413.62 298.40 411.20 295.98 408.88 293.46 C 410.74 293.16 412.61 292.86 414.48 292.55 C 412.75 288.82 409.36 286.49 405.61 285.09 C 405.09 286.90 404.23 288.69 404.24 290.61 C 405.21 292.06 406.49 293.26 407.68 294.54 C 405.03 293.18 402.44 291.70 399.87 290.19 C 399.99 290.57 400.24 291.32 400.36 291.70 C 389.85 274.67 379.40 257.60 368.36 240.91 C 362.29 230.89 355.38 221.39 349.81 211.06 Z" fill="#cedee0" opacity="1.00" stroke="#cedee0" stroke-width="0.25" data-index="22"></path>
<path d="M 165.94 242.89 C 169.36 232.86 172.16 222.63 175.74 212.65 C 176.10 214.98 176.60 217.33 176.35 219.69 C 174.82 229.12 170.97 238.04 165.58 245.90 C 165.67 245.15 165.85 243.64 165.94 242.89 Z" fill="#5fe2f5" opacity="1.00" stroke="#5fe2f5" stroke-width="0.25" data-index="23"></path>
<path d="M 247.97 219.71 C 252.06 217.96 256.44 216.19 260.97 216.57 C 270.11 224.18 278.30 232.93 287.48 240.53 C 292.30 244.35 296.22 249.13 300.99 252.99 C 307.03 258.15 313.50 262.90 318.65 269.00 C 314.93 273.28 314.56 279.10 313.15 284.35 C 311.21 291.97 308.41 299.36 307.00 307.12 C 305.51 315.86 300.75 323.75 300.30 332.72 C 298.95 333.16 297.60 333.59 296.25 334.00 C 290.68 335.50 285.06 336.81 279.57 338.57 C 262.83 344.04 245.50 347.67 229.05 354.04 C 229.81 354.43 231.33 355.21 232.10 355.59 C 228.57 355.93 226.88 352.39 224.69 350.31 C 218.66 343.99 212.10 338.17 206.67 331.32 C 199.69 323.03 191.72 315.65 184.23 307.84 C 181.80 304.94 178.84 302.31 177.30 298.79 C 177.36 295.92 178.60 293.26 179.46 290.57 C 183.44 278.50 186.69 266.18 191.16 254.28 C 193.24 248.69 194.40 242.81 196.41 237.21 C 197.64 233.60 201.72 232.63 204.94 231.63 C 211.43 229.87 217.84 227.68 224.46 226.48 C 226.05 226.30 227.63 226.19 229.23 226.09 C 221.21 232.31 210.41 231.56 201.48 235.55 C 200.05 237.79 199.53 240.45 198.82 242.97 C 195.92 254.62 191.62 265.83 188.24 277.34 C 186.52 283.28 183.79 288.99 183.06 295.19 C 182.36 298.96 185.54 301.68 187.82 304.17 C 193.37 309.64 198.07 315.90 203.71 321.29 C 209.50 326.84 215.07 332.63 220.17 338.82 C 222.64 341.68 224.86 344.83 227.91 347.12 C 229.82 348.75 232.45 348.13 234.68 347.72 C 248.00 344.55 260.83 339.69 274.00 335.97 C 280.03 333.80 286.32 332.47 292.33 330.27 C 296.06 329.04 296.79 324.78 297.61 321.47 C 300.40 307.89 304.02 294.48 308.35 281.31 C 309.61 277.30 311.53 273.40 311.85 269.16 C 310.58 266.54 308.00 264.95 305.82 263.16 C 299.30 258.44 294.12 252.18 287.81 247.20 C 282.43 242.95 277.72 237.96 272.58 233.45 C 268.76 230.28 265.50 226.52 262.67 222.46 C 257.82 221.32 252.95 220.17 247.97 219.71 Z" fill="#52f8fb" opacity="1.00" stroke="#52f8fb" stroke-width="0.25" data-index="24" style="opacity: 1;"></path>
<path d="M 234.52 222.68 C 239.14 222.38 243.56 221.01 247.97 219.71 C 252.95 220.17 257.82 221.32 262.67 222.46 C 265.50 226.52 268.76 230.28 272.58 233.45 C 277.72 237.96 282.43 242.95 287.81 247.20 C 294.12 252.18 299.30 258.44 305.82 263.16 C 308.00 264.95 310.58 266.54 311.85 269.16 C 311.53 273.40 309.61 277.30 308.35 281.31 C 304.02 294.48 300.40 307.89 297.61 321.47 C 296.79 324.78 296.06 329.04 292.33 330.27 C 286.32 332.47 280.03 333.80 274.00 335.97 C 260.83 339.69 248.00 344.55 234.68 347.72 C 232.45 348.13 229.82 348.75 227.91 347.12 C 224.86 344.83 222.64 341.68 220.17 338.82 C 215.07 332.63 209.50 326.84 203.71 321.29 C 198.07 315.90 193.37 309.64 187.82 304.17 C 185.54 301.68 182.36 298.96 183.06 295.19 C 183.79 288.99 186.52 283.28 188.24 277.34 C 191.62 265.83 195.92 254.62 198.82 242.97 C 199.53 240.45 200.05 237.79 201.48 235.55 C 210.41 231.56 221.21 232.31 229.23 226.09 C 227.63 226.19 226.05 226.30 224.46 226.48 L 224.33 225.78 C 227.73 225.08 231.11 224.27 234.51 223.53 C 234.51 223.32 234.51 222.89 234.52 222.68 Z" fill="#26f5fd" opacity="1.00" stroke="#26f5fd" stroke-width="0.25" data-index="25" style="opacity: 1;"></path>
<path d="M 309.69 232.04 C 310.25 231.72 311.37 231.07 311.93 230.74 C 312.94 231.56 313.97 232.37 314.96 233.22 C 317.11 235.67 319.36 238.03 321.74 240.26 C 337.53 255.10 353.81 269.43 369.26 284.64 C 368.75 286.10 368.25 287.57 367.75 289.05 C 365.59 287.28 363.48 285.46 361.48 283.53 C 350.11 272.53 337.51 262.88 326.32 251.69 C 322.59 248.03 318.37 244.89 315.04 240.84 C 316.13 241.17 317.24 241.48 318.35 241.78 C 315.72 238.32 312.76 235.12 309.69 232.04 Z" fill="#80e0ed" opacity="1.00" stroke="#80e0ed" stroke-width="0.25" data-index="26"></path>
<path d="M 169.86 251.83 C 171.81 246.65 174.48 241.81 177.10 236.95 C 171.24 259.22 164.95 281.39 158.28 303.42 C 157.60 305.44 157.77 307.59 158.53 309.56 C 155.43 310.51 152.16 310.65 148.94 310.76 C 148.12 309.66 147.39 308.50 146.72 307.31 C 147.91 305.63 149.09 303.95 150.12 302.17 C 153.60 296.60 156.09 290.48 158.26 284.30 C 160.26 278.61 160.20 272.49 161.70 266.69 C 163.06 261.05 167.94 257.23 169.86 251.83 Z" fill="#26d5fa" opacity="1.00" stroke="#26d5fa" stroke-width="0.25" data-index="27"></path>
<path d="M 164.77 245.99 C 165.17 244.96 165.56 243.92 165.94 242.89 C 165.85 243.64 165.67 245.15 165.58 245.90 C 162.67 255.95 159.66 265.97 156.91 276.07 C 153.90 284.56 151.52 293.26 150.12 302.17 C 149.09 303.95 147.91 305.63 146.72 307.31 C 146.81 303.64 147.43 300.01 148.30 296.45 C 153.72 279.00 157.76 261.17 163.21 243.73 C 163.60 244.30 164.38 245.42 164.77 245.99 Z" fill="#97e0f3" opacity="1.00" stroke="#97e0f3" stroke-width="0.25" data-index="28"></path>
<path d="M 126.91 270.89 C 128.94 266.12 132.75 262.60 137.09 259.93 C 137.33 263.55 138.95 266.78 141.58 269.24 C 140.35 272.65 140.95 276.18 142.60 279.33 C 145.39 284.82 143.34 291.98 148.30 296.45 C 147.43 300.01 146.81 303.64 146.72 307.31 C 147.39 308.50 148.12 309.66 148.94 310.76 C 149.17 310.99 149.63 311.47 149.86 311.71 C 155.53 317.75 161.04 323.94 166.49 330.18 L 165.90 330.66 C 165.09 331.06 164.29 331.45 163.48 331.84 C 161.14 328.17 157.75 325.31 153.50 324.15 C 153.21 322.83 152.93 321.51 152.65 320.19 C 151.58 320.25 150.50 320.31 149.43 320.37 C 149.26 322.21 149.10 324.06 148.93 325.91 C 147.97 324.43 147.02 322.94 146.05 321.47 C 146.18 320.67 146.32 319.88 146.46 319.10 C 144.26 315.10 142.69 310.79 141.96 306.28 C 138.83 304.16 136.62 301.07 136.36 297.21 C 133.63 295.13 130.88 292.21 127.23 292.14 C 122.63 294.71 119.88 299.54 116.04 303.04 C 111.73 306.82 112.09 312.98 110.01 317.91 C 105.96 328.28 100.12 338.17 99.07 349.46 C 98.33 349.53 97.60 349.59 96.86 349.67 C 95.65 351.14 94.71 352.95 93.06 353.99 C 91.55 354.41 89.97 354.31 88.43 354.34 C 90.45 347.77 92.82 341.27 93.92 334.46 C 95.01 328.18 95.45 321.50 98.98 315.98 C 103.35 309.26 104.99 301.20 109.39 294.50 C 111.39 291.21 114.22 288.58 116.58 285.58 C 118.76 282.77 119.63 279.24 121.27 276.13 C 122.52 273.81 124.90 272.47 126.91 270.89 Z" fill="#5d7890" opacity="1.00" stroke="#5d7890" stroke-width="0.25" data-index="29"></path>
<path d="M 313.15 284.35 C 314.56 279.10 314.93 273.28 318.65 269.00 C 318.72 276.32 315.79 283.18 314.15 290.21 C 310.14 305.08 306.73 320.09 302.58 334.92 C 300.41 335.41 298.23 335.85 296.05 336.27 C 296.10 335.70 296.20 334.57 296.25 334.00 C 297.60 333.59 298.95 333.16 300.30 332.72 C 300.75 323.75 305.51 315.86 307.00 307.12 C 308.41 299.36 311.21 291.97 313.15 284.35 Z" fill="#21a6db" opacity="1.00" stroke="#21a6db" stroke-width="0.25" data-index="30"></path>
<path d="M 369.26 284.64 C 377.76 292.16 385.63 300.37 394.27 307.74 C 399.62 312.32 404.65 317.25 409.96 321.87 C 412.83 325.37 415.82 328.78 419.28 331.72 C 424.16 335.86 427.38 341.55 432.16 345.80 L 432.62 346.65 C 430.93 346.04 429.21 345.39 427.93 344.09 C 424.18 340.51 420.78 336.56 416.65 333.39 C 407.40 326.37 399.76 317.51 390.56 310.41 C 383.13 303.10 375.51 296.00 367.75 289.05 C 368.25 287.57 368.75 286.10 369.26 284.64 Z" fill="#73dce5" opacity="1.00" stroke="#73dce5" stroke-width="0.25" data-index="31"></path>
<path d="M 404.24 290.61 C 404.23 288.69 405.09 286.90 405.61 285.09 C 409.36 286.49 412.75 288.82 414.48 292.55 C 412.61 292.86 410.74 293.16 408.88 293.46 C 411.20 295.98 413.62 298.40 416.29 300.56 C 422.75 305.61 426.79 312.90 432.01 319.09 C 434.11 321.78 435.67 324.84 437.03 327.97 C 433.39 323.48 427.61 321.82 422.05 322.98 C 420.16 320.48 418.13 318.10 416.06 315.75 C 410.44 308.32 406.08 300.04 400.76 292.40 L 400.36 291.70 C 400.24 291.32 399.99 290.57 399.87 290.19 C 402.44 291.70 405.03 293.18 407.68 294.54 C 406.49 293.26 405.21 292.06 404.24 290.61 Z" fill="#c0d7de" opacity="1.00" stroke="#c0d7de" stroke-width="0.25" data-index="32"></path>
<path d="M 336.72 290.66 C 339.68 288.88 343.90 290.50 344.62 293.95 C 344.75 294.34 345.01 295.13 345.14 295.52 C 344.92 296.54 344.69 297.56 344.43 298.58 C 341.58 308.98 338.63 319.38 336.79 330.02 C 335.61 334.00 334.84 338.07 333.94 342.12 C 332.64 346.66 331.53 351.26 330.75 355.92 C 327.52 357.16 324.16 358.02 320.78 358.76 C 310.28 360.63 300.07 363.81 289.77 366.58 C 285.45 367.50 281.14 368.52 276.90 369.78 C 266.78 371.77 256.83 374.59 247.10 378.01 C 240.93 379.21 234.81 380.70 228.79 382.51 C 229.18 381.61 229.59 380.72 230.04 379.85 C 260.92 371.33 291.64 362.17 322.87 355.02 C 324.63 354.51 326.49 354.05 328.00 352.94 C 330.22 348.85 330.62 344.08 331.78 339.64 C 334.71 327.64 337.36 315.57 340.79 303.71 C 341.76 300.05 342.97 296.30 342.54 292.48 C 341.15 290.88 337.56 290.35 337.01 292.95 C 333.90 301.91 332.36 311.34 329.23 320.30 C 329.41 313.21 332.19 306.61 333.83 299.81 C 334.66 296.72 335.22 293.51 336.72 290.66 Z" fill="#8cebfa" opacity="1.00" stroke="#8cebfa" stroke-width="0.25" data-index="33"></path>
<path d="M 337.01 292.95 C 337.56 290.35 341.15 290.88 342.54 292.48 C 342.97 296.30 341.76 300.05 340.79 303.71 C 337.36 315.57 334.71 327.64 331.78 339.64 C 330.62 344.08 330.22 348.85 328.00 352.94 C 326.49 354.05 324.63 354.51 322.87 355.02 C 291.64 362.17 260.92 371.33 230.04 379.85 C 218.70 382.92 207.48 386.50 195.98 388.97 C 181.23 392.76 166.71 397.43 151.90 401.03 C 145.72 402.84 139.49 404.45 133.11 405.43 C 135.05 403.86 136.90 402.17 138.89 400.67 C 152.40 396.61 166.09 393.12 179.71 389.44 C 204.10 383.12 228.12 375.47 252.51 369.12 C 275.32 362.17 298.50 356.45 321.23 349.26 C 324.55 339.79 326.66 329.98 329.23 320.30 C 332.36 311.34 333.90 301.91 337.01 292.95 Z" fill="#10d3d7" opacity="1.00" stroke="#10d3d7" stroke-width="0.25" data-index="34"></path>
<path d="M 116.04 303.04 C 119.88 299.54 122.63 294.71 127.23 292.14 C 130.88 292.21 133.63 295.13 136.36 297.21 C 136.62 301.07 138.83 304.16 141.96 306.28 C 142.69 310.79 144.26 315.10 146.46 319.10 C 146.32 319.88 146.18 320.67 146.05 321.47 C 144.10 329.58 146.18 338.10 144.11 346.15 C 140.31 353.54 131.61 355.96 124.29 358.41 C 118.33 360.61 111.77 360.36 105.82 358.29 C 104.08 354.98 101.79 352.01 99.07 349.46 C 100.12 338.17 105.96 328.28 110.01 317.91 C 112.09 312.98 111.73 306.82 116.04 303.04 Z" fill="#5c6e86" opacity="1.00" stroke="#5c6e86" stroke-width="0.25" data-index="35"></path>
<path d="M 344.62 293.95 C 348.95 296.25 351.88 300.32 355.69 303.30 C 368.04 313.57 379.64 324.69 391.71 335.27 C 404.31 345.98 415.80 357.90 428.47 368.53 C 438.46 377.52 448.37 386.65 457.45 396.57 C 459.77 398.93 462.02 401.40 463.73 404.27 C 456.79 401.41 450.34 396.94 446.23 390.56 C 443.74 384.79 438.42 381.18 434.02 377.00 C 419.25 363.42 404.20 350.16 389.30 336.73 C 379.78 327.54 369.28 319.45 359.84 310.18 C 354.94 305.30 349.00 301.36 345.14 295.52 C 345.01 295.13 344.75 294.34 344.62 293.95 Z" fill="#9ac9d3" opacity="1.00" stroke="#9ac9d3" stroke-width="0.25" data-index="36"></path>
<path d="M 344.43 298.58 C 344.69 297.56 344.92 296.54 345.14 295.52 C 349.00 301.36 354.94 305.30 359.84 310.18 C 369.28 319.45 379.78 327.54 389.30 336.73 C 404.20 350.16 419.25 363.42 434.02 377.00 C 438.42 381.18 443.74 384.79 446.23 390.56 C 429.31 375.81 412.88 360.52 395.70 346.07 C 387.89 338.26 379.32 331.28 371.22 323.77 C 364.16 316.93 356.47 310.75 349.82 303.49 C 348.09 301.78 346.25 300.18 344.43 298.58 Z" fill="#bdeef4" opacity="1.00" stroke="#bdeef4" stroke-width="0.25" data-index="37"></path>
<path d="M 336.79 330.02 C 338.63 319.38 341.58 308.98 344.43 298.58 C 346.25 300.18 348.09 301.78 349.82 303.49 C 348.34 303.93 346.25 303.76 345.51 305.42 C 343.17 309.63 342.39 314.46 341.05 319.04 C 339.89 322.80 338.39 326.43 336.79 330.02 Z" fill="#83aeb7" opacity="1.00" stroke="#83aeb7" stroke-width="0.25" data-index="38"></path>
<path d="M 345.51 305.42 C 346.25 303.76 348.34 303.93 349.82 303.49 C 356.47 310.75 364.16 316.93 371.22 323.77 C 379.32 331.28 387.89 338.26 395.70 346.07 C 398.13 353.41 404.67 357.92 409.43 363.61 C 412.39 366.96 411.30 371.74 411.37 375.81 C 413.36 375.33 415.35 374.86 417.34 374.39 C 416.78 377.54 415.66 380.93 416.97 384.05 C 418.41 387.46 420.76 390.38 422.30 393.75 C 424.59 398.43 425.26 403.66 426.07 408.74 C 424.13 408.83 422.20 408.93 420.27 409.02 C 420.44 409.56 420.78 410.62 420.95 411.15 C 412.59 410.81 404.27 412.11 395.91 411.82 C 401.18 409.73 404.98 404.63 405.48 399.00 C 405.25 396.59 403.51 394.68 402.37 392.64 C 398.75 387.15 396.77 380.36 398.15 373.81 C 392.86 368.71 388.05 363.07 384.18 356.82 C 381.29 352.06 379.97 346.59 378.44 341.30 C 373.03 339.17 367.39 337.63 362.10 335.16 C 362.31 333.00 362.49 330.84 362.68 328.69 C 359.08 327.83 354.81 327.81 352.11 324.91 C 349.38 321.98 347.17 318.61 344.68 315.49 C 343.45 316.65 342.21 317.81 341.05 319.04 C 342.39 314.46 343.17 309.63 345.51 305.42 Z" fill="#91a3aa" opacity="1.00" stroke="#91a3aa" stroke-width="0.25" data-index="39"></path>
<path d="M 161.32 307.82 C 167.61 312.51 172.54 318.66 177.25 324.87 C 184.24 332.42 191.28 339.94 198.02 347.73 C 193.83 348.68 189.68 349.82 185.59 351.16 L 184.75 351.33 L 184.17 350.58 C 185.33 350.01 186.50 349.46 187.68 348.93 C 185.22 346.17 182.83 343.36 180.46 340.54 C 173.72 332.30 165.10 325.82 158.68 317.29 C 156.63 314.24 153.44 312.39 149.86 311.71 C 149.63 311.47 149.17 310.99 148.94 310.76 C 152.16 310.65 155.43 310.51 158.53 309.56 C 159.48 309.00 160.41 308.43 161.32 307.82 Z" fill="#61eef5" opacity="1.00" stroke="#61eef5" stroke-width="0.25" data-index="40"></path>
<path d="M 149.86 311.71 C 153.44 312.39 156.63 314.24 158.68 317.29 C 165.10 325.82 173.72 332.30 180.46 340.54 C 182.83 343.36 185.22 346.17 187.68 348.93 C 186.50 349.46 185.33 350.01 184.17 350.58 C 179.04 343.14 172.39 336.97 166.49 330.18 C 161.04 323.94 155.53 317.75 149.86 311.71 Z" fill="#a8f0fc" opacity="1.00" stroke="#a8f0fc" stroke-width="0.25" data-index="41"></path>
<path d="M 341.05 319.04 C 342.21 317.81 343.45 316.65 344.68 315.49 C 347.17 318.61 349.38 321.98 352.11 324.91 C 354.81 327.81 359.08 327.83 362.68 328.69 C 362.49 330.84 362.31 333.00 362.10 335.16 C 367.39 337.63 373.03 339.17 378.44 341.30 C 379.97 346.59 381.29 352.06 384.18 356.82 C 388.05 363.07 392.86 368.71 398.15 373.81 C 396.77 380.36 398.75 387.15 402.37 392.64 C 403.51 394.68 405.25 396.59 405.48 399.00 C 404.98 404.63 401.18 409.73 395.91 411.82 C 395.28 411.89 394.04 412.02 393.42 412.09 C 389.56 409.92 385.61 407.95 381.60 406.09 C 383.38 401.59 385.64 397.28 386.99 392.63 C 384.50 390.59 381.75 388.61 380.34 385.63 C 378.35 381.45 378.41 376.61 376.37 372.45 C 375.09 369.87 373.45 367.47 372.51 364.73 C 371.39 361.90 370.82 358.69 368.64 356.42 C 364.45 352.06 359.93 347.68 354.05 345.76 C 352.11 342.56 350.44 339.00 347.33 336.76 C 344.76 334.87 341.97 333.24 338.97 332.14 C 336.75 335.15 335.33 338.67 333.94 342.12 C 334.84 338.07 335.61 334.00 336.79 330.02 C 338.39 326.43 339.89 322.80 341.05 319.04 Z" fill="#889aa4" opacity="1.00" stroke="#889aa4" stroke-width="0.25" data-index="42"></path>
<path d="M 416.06 315.75 C 418.13 318.10 420.16 320.48 422.05 322.98 C 427.61 321.82 433.39 323.48 437.03 327.97 C 443.47 338.25 449.12 349.05 455.84 359.17 C 457.99 362.37 460.01 365.66 461.90 369.03 C 460.07 369.65 458.29 370.79 456.31 370.72 C 454.95 370.08 454.05 368.82 453.04 367.77 C 454.04 368.17 455.06 368.55 456.08 368.92 C 452.88 363.65 449.57 358.30 444.82 354.27 C 441.19 351.21 437.66 347.71 433.07 346.15 C 432.68 341.63 430.10 337.88 427.24 334.54 C 424.06 330.12 421.39 325.36 418.27 320.89 C 417.49 319.19 416.82 317.45 416.06 315.75 Z" fill="#abcbd8" opacity="1.00" stroke="#abcbd8" stroke-width="0.25" data-index="43"></path>
<path d="M 74.42 333.43 C 77.32 328.43 78.26 322.45 81.92 317.88 C 82.45 318.57 82.98 319.26 83.51 319.95 C 82.73 323.43 82.21 326.95 81.73 330.48 C 81.00 336.21 78.11 341.43 77.70 347.22 C 77.35 357.66 74.79 368.66 67.52 376.54 C 66.87 381.10 66.31 385.73 64.60 390.05 C 66.88 391.12 69.17 392.19 71.46 393.27 C 66.30 395.02 61.23 397.02 56.26 399.27 C 49.75 401.46 43.33 403.90 36.78 405.98 C 37.09 403.57 37.37 401.15 37.66 398.75 C 38.31 399.12 39.62 399.88 40.27 400.26 C 41.02 398.02 41.70 395.74 42.78 393.64 C 44.20 390.95 46.73 389.09 48.37 386.56 C 48.34 384.09 47.54 381.70 47.43 379.24 C 49.51 376.14 52.81 374.04 54.65 370.75 C 56.70 367.18 58.78 363.62 61.34 360.38 C 67.45 352.31 69.45 342.12 74.42 333.43 Z" fill="#5387a8" opacity="1.00" stroke="#5387a8" stroke-width="0.25" data-index="44"></path>
<path d="M 58.12 327.09 C 59.68 324.39 61.57 321.88 63.80 319.69 C 60.69 326.35 56.22 332.21 52.53 338.54 C 49.43 343.91 45.20 348.86 43.92 355.09 C 41.08 369.52 39.65 384.18 37.66 398.75 C 37.37 401.15 37.09 403.57 36.78 405.98 C 36.53 407.88 36.28 409.79 36.01 411.71 C 35.12 406.11 36.53 400.53 37.00 394.97 C 38.08 383.49 40.02 372.12 41.80 360.74 C 42.65 356.25 42.95 351.47 45.45 347.52 C 49.63 340.69 54.05 334.00 58.12 327.09 Z" fill="#9cd5e3" opacity="1.00" stroke="#9cd5e3" stroke-width="0.25" data-index="45"></path>
<path d="M 149.43 320.37 C 150.50 320.31 151.58 320.25 152.65 320.19 C 152.93 321.51 153.21 322.83 153.50 324.15 C 157.75 325.31 161.14 328.17 163.48 331.84 C 164.29 331.45 165.09 331.06 165.90 330.66 C 164.32 332.12 162.81 333.64 161.28 335.14 C 162.41 337.31 164.28 339.60 163.38 342.20 C 162.06 346.75 158.44 350.08 155.88 353.94 C 152.56 358.87 146.43 360.21 141.25 362.32 C 135.57 364.31 130.46 367.54 124.99 370.00 C 119.87 372.38 113.95 372.18 108.94 374.82 C 105.09 376.58 101.37 379.18 97.02 379.37 C 92.35 379.05 88.82 375.55 85.53 372.58 C 85.63 366.40 86.27 360.18 88.43 354.34 C 89.97 354.31 91.55 354.41 93.06 353.99 C 94.71 352.95 95.65 351.14 96.86 349.67 C 97.60 349.59 98.33 349.53 99.07 349.46 C 101.79 352.01 104.08 354.98 105.82 358.29 C 111.77 360.36 118.33 360.61 124.29 358.41 C 131.61 355.96 140.31 353.54 144.11 346.15 C 146.18 338.10 144.10 329.58 146.05 321.47 C 147.02 322.94 147.97 324.43 148.93 325.91 C 149.10 324.06 149.26 322.21 149.43 320.37 Z" fill="#557494" opacity="1.00" stroke="#557494" stroke-width="0.25" data-index="46"></path>
<path d="M 409.96 321.87 C 416.27 325.41 420.04 332.59 427.24 334.54 C 430.10 337.88 432.68 341.63 433.07 346.15 L 432.16 345.80 C 427.38 341.55 424.16 335.86 419.28 331.72 C 415.82 328.78 412.83 325.37 409.96 321.87 Z" fill="#33b0c4" opacity="1.00" stroke="#33b0c4" stroke-width="0.25" data-index="47"></path>
<path d="M 166.49 330.18 C 172.39 336.97 179.04 343.14 184.17 350.58 L 184.75 351.33 C 179.95 352.22 175.28 353.72 170.91 355.89 C 164.86 358.41 158.50 360.07 152.35 362.34 C 147.07 364.19 142.01 366.61 136.81 368.68 C 121.54 374.29 105.98 379.24 91.20 386.09 C 84.52 388.21 78.05 390.91 71.46 393.27 C 69.17 392.19 66.88 391.12 64.60 390.05 C 66.31 385.73 66.87 381.10 67.52 376.54 C 74.79 368.66 77.35 357.66 77.70 347.22 C 78.16 347.49 79.07 348.02 79.53 348.29 C 80.75 356.08 82.14 363.93 81.34 371.84 C 82.74 372.09 84.13 372.33 85.53 372.58 C 88.82 375.55 92.35 379.05 97.02 379.37 C 101.37 379.18 105.09 376.58 108.94 374.82 C 113.95 372.18 119.87 372.38 124.99 370.00 C 130.46 367.54 135.57 364.31 141.25 362.32 C 146.43 360.21 152.56 358.87 155.88 353.94 C 158.44 350.08 162.06 346.75 163.38 342.20 C 164.28 339.60 162.41 337.31 161.28 335.14 C 162.81 333.64 164.32 332.12 165.90 330.66 L 166.49 330.18 Z" fill="#517ea0" opacity="1.00" stroke="#517ea0" stroke-width="0.25" data-index="48"></path>
<path d="M 333.94 342.12 C 335.33 338.67 336.75 335.15 338.97 332.14 C 341.97 333.24 344.76 334.87 347.33 336.76 C 350.44 339.00 352.11 342.56 354.05 345.76 C 359.93 347.68 364.45 352.06 368.64 356.42 C 370.82 358.69 371.39 361.90 372.51 364.73 C 373.45 367.47 375.09 369.87 376.37 372.45 C 378.41 376.61 378.35 381.45 380.34 385.63 C 381.75 388.61 384.50 390.59 386.99 392.63 C 385.64 397.28 383.38 401.59 381.60 406.09 C 375.10 407.01 368.54 407.52 361.99 407.88 C 361.88 406.37 361.69 404.86 361.85 403.36 C 363.49 401.49 365.85 400.50 367.94 399.25 C 367.63 396.47 367.52 393.50 366.01 391.05 C 363.83 387.61 360.10 385.58 357.73 382.31 C 356.68 377.67 358.09 372.23 354.64 368.33 C 351.67 365.17 348.33 362.34 346.20 358.48 C 343.53 356.49 339.64 357.13 336.70 355.54 C 335.90 354.16 335.49 352.62 334.98 351.13 C 333.64 352.78 332.27 354.42 330.75 355.92 C 331.53 351.26 332.64 346.66 333.94 342.12 Z" fill="#7f909b" opacity="1.00" stroke="#7f909b" stroke-width="0.25" data-index="49"></path>
<path d="M 279.57 338.57 C 285.06 336.81 290.68 335.50 296.25 334.00 C 296.20 334.57 296.10 335.70 296.05 336.27 C 293.50 337.93 290.44 338.50 287.57 339.35 C 273.55 343.10 259.73 347.53 245.72 351.33 C 241.06 352.37 236.65 354.22 232.10 355.59 C 231.33 355.21 229.81 354.43 229.05 354.04 C 245.50 347.67 262.83 344.04 279.57 338.57 Z" fill="#45d3e7" opacity="1.00" stroke="#45d3e7" stroke-width="0.25" data-index="50"></path>
<path d="M 395.70 346.07 C 412.88 360.52 429.31 375.81 446.23 390.56 C 450.34 396.94 456.79 401.41 463.73 404.27 L 464.31 404.53 C 455.28 407.45 446.13 410.07 436.75 411.58 C 431.49 412.40 426.19 411.62 420.95 411.15 C 420.78 410.62 420.44 409.56 420.27 409.02 C 422.20 408.93 424.13 408.83 426.07 408.74 C 425.26 403.66 424.59 398.43 422.30 393.75 C 420.76 390.38 418.41 387.46 416.97 384.05 C 415.66 380.93 416.78 377.54 417.34 374.39 C 415.35 374.86 413.36 375.33 411.37 375.81 C 411.30 371.74 412.39 366.96 409.43 363.61 C 404.67 357.92 398.13 353.41 395.70 346.07 Z" fill="#99acb3" opacity="1.00" stroke="#99acb3" stroke-width="0.25" data-index="51"></path>
<path d="M 432.16 345.80 L 433.07 346.15 C 437.66 347.71 441.19 351.21 444.82 354.27 C 449.57 358.30 452.88 363.65 456.08 368.92 C 455.06 368.55 454.04 368.17 453.04 367.77 C 448.76 364.15 445.05 359.88 440.92 356.08 C 437.94 353.14 434.40 350.56 432.62 346.65 L 432.16 345.80 Z" fill="#66acc4" opacity="1.00" stroke="#66acc4" stroke-width="0.25" data-index="52"></path>
<path d="M 185.59 351.16 C 189.68 349.82 193.83 348.68 198.02 347.73 C 199.66 349.82 201.96 351.85 201.84 354.76 C 200.96 355.25 200.04 355.65 199.07 355.95 C 192.90 357.54 187.08 360.30 180.78 361.40 C 176.43 362.15 172.17 363.37 168.07 365.01 C 160.50 368.02 152.62 370.12 144.96 372.85 C 144.41 372.88 143.31 372.92 142.76 372.94 C 147.00 367.86 153.76 366.50 159.17 363.11 C 161.46 362.10 163.77 361.13 166.09 360.18 C 173.11 358.42 179.72 355.39 185.59 351.16 Z" fill="#15bdfc" opacity="1.00" stroke="#15bdfc" stroke-width="0.25" data-index="53"></path>
<path d="M 170.91 355.89 C 175.28 353.72 179.95 352.22 184.75 351.33 L 185.59 351.16 C 179.72 355.39 173.11 358.42 166.09 360.18 C 167.73 358.79 169.27 357.28 170.91 355.89 Z" fill="#1c8acb" opacity="1.00" stroke="#1c8acb" stroke-width="0.25" data-index="54"></path>
<path d="M 330.75 355.92 C 332.27 354.42 333.64 352.78 334.98 351.13 C 335.49 352.62 335.90 354.16 336.70 355.54 C 339.64 357.13 343.53 356.49 346.20 358.48 C 348.33 362.34 351.67 365.17 354.64 368.33 C 358.09 372.23 356.68 377.67 357.73 382.31 C 360.10 385.58 363.83 387.61 366.01 391.05 C 367.52 393.50 367.63 396.47 367.94 399.25 C 365.85 400.50 363.49 401.49 361.85 403.36 C 361.69 404.86 361.88 406.37 361.99 407.88 C 358.00 408.08 353.97 408.20 350.09 409.23 C 347.59 405.53 347.22 401.10 348.00 396.81 C 344.74 393.66 343.01 389.37 340.15 385.94 C 335.77 382.18 330.77 379.20 326.01 375.96 C 324.87 372.62 323.29 369.39 322.65 365.90 C 322.62 363.42 323.96 361.19 324.74 358.91 C 323.42 358.84 322.10 358.79 320.78 358.76 C 324.16 358.02 327.52 357.16 330.75 355.92 Z" fill="#778995" opacity="1.00" stroke="#778995" stroke-width="0.25" data-index="55"></path>
<path d="M 152.35 362.34 C 158.50 360.07 164.86 358.41 170.91 355.89 C 169.27 357.28 167.73 358.79 166.09 360.18 C 163.77 361.13 161.46 362.10 159.17 363.11 C 154.60 364.47 150.04 365.85 145.66 367.74 C 135.26 372.22 124.41 375.52 114.05 380.09 C 105.30 384.14 95.98 386.82 87.42 391.32 C 82.56 393.26 77.53 394.72 72.62 396.53 C 78.18 391.96 85.42 390.33 91.20 386.09 C 105.98 379.24 121.54 374.29 136.81 368.68 C 142.01 366.61 147.07 364.19 152.35 362.34 Z" fill="#1a6bae" opacity="1.00" stroke="#1a6bae" stroke-width="0.25" data-index="56"></path>
<path d="M 180.78 361.40 C 187.08 360.30 192.90 357.54 199.07 355.95 C 191.42 359.95 182.97 362.01 174.89 364.93 C 157.77 371.32 140.46 377.13 123.22 383.17 C 103.55 390.20 83.95 397.45 64.12 404.01 C 58.19 405.84 52.25 407.96 46.01 408.36 C 47.10 407.69 48.17 407.00 49.26 406.34 C 56.98 402.92 64.67 399.41 72.62 396.53 C 77.53 394.72 82.56 393.26 87.42 391.32 C 87.38 391.98 87.29 393.30 87.25 393.95 C 106.44 386.77 125.87 380.27 144.96 372.85 C 152.62 370.12 160.50 368.02 168.07 365.01 C 172.17 363.37 176.43 362.15 180.78 361.40 Z" fill="#267cd7" opacity="1.00" stroke="#267cd7" stroke-width="0.25" data-index="57"></path>
<path d="M 289.77 366.58 C 300.07 363.81 310.28 360.63 320.78 358.76 C 322.10 358.79 323.42 358.84 324.74 358.91 C 323.96 361.19 322.62 363.42 322.65 365.90 C 323.29 369.39 324.87 372.62 326.01 375.96 C 330.77 379.20 335.77 382.18 340.15 385.94 C 343.01 389.37 344.74 393.66 348.00 396.81 C 347.22 401.10 347.59 405.53 350.09 409.23 C 348.83 409.71 347.60 410.27 346.36 410.80 C 336.48 409.50 326.66 407.82 316.91 405.75 C 315.51 403.80 313.49 401.88 313.56 399.30 C 313.63 396.12 314.53 393.05 315.30 389.99 C 310.01 385.51 305.43 380.29 300.72 375.22 C 298.82 373.24 297.73 370.70 296.80 368.16 C 294.47 367.57 292.13 367.00 289.77 366.58 Z" fill="#6d8493" opacity="1.00" stroke="#6d8493" stroke-width="0.25" data-index="58"></path>
<path d="M 145.66 367.74 C 150.04 365.85 154.60 364.47 159.17 363.11 C 153.76 366.50 147.00 367.86 142.76 372.94 C 143.31 372.92 144.41 372.88 144.96 372.85 C 125.87 380.27 106.44 386.77 87.25 393.95 C 87.29 393.30 87.38 391.98 87.42 391.32 C 95.98 386.82 105.30 384.14 114.05 380.09 C 124.41 375.52 135.26 372.22 145.66 367.74 Z" fill="#1e92f6" opacity="1.00" stroke="#1e92f6" stroke-width="0.25" data-index="59"></path>
<path d="M 276.90 369.78 C 281.14 368.52 285.45 367.50 289.77 366.58 C 292.13 367.00 294.47 367.57 296.80 368.16 C 297.73 370.70 298.82 373.24 300.72 375.22 C 305.43 380.29 310.01 385.51 315.30 389.99 C 314.53 393.05 313.63 396.12 313.56 399.30 C 313.49 401.88 315.51 403.80 316.91 405.75 C 312.77 404.79 308.54 404.17 304.29 404.22 C 298.32 404.30 292.42 402.95 286.45 403.44 C 281.67 403.75 276.85 404.59 272.06 403.89 C 268.45 403.50 266.70 399.89 264.47 397.50 C 261.45 393.51 256.87 390.46 255.48 385.43 C 254.88 382.92 254.34 379.47 256.99 377.95 C 262.95 373.68 271.04 374.38 276.90 369.78 Z" fill="#657f93" opacity="1.00" stroke="#657f93" stroke-width="0.25" data-index="60"></path>
<path d="M 247.10 378.01 C 256.83 374.59 266.78 371.77 276.90 369.78 C 271.04 374.38 262.95 373.68 256.99 377.95 C 254.34 379.47 254.88 382.92 255.48 385.43 C 256.87 390.46 261.45 393.51 264.47 397.50 C 266.70 399.89 268.45 403.50 272.06 403.89 C 276.85 404.59 281.67 403.75 286.45 403.44 C 292.42 402.95 298.32 404.30 304.29 404.22 C 308.54 404.17 312.77 404.79 316.91 405.75 C 326.66 407.82 336.48 409.50 346.36 410.80 L 345.62 411.09 C 341.30 412.19 336.81 411.88 332.43 411.50 C 324.65 410.75 316.78 411.23 309.06 409.91 C 302.82 408.86 296.46 408.57 290.16 409.28 C 280.80 410.35 271.36 410.00 261.96 409.97 C 254.48 409.94 247.32 407.54 240.11 405.86 C 236.34 404.91 232.05 403.65 230.21 399.86 C 228.31 396.03 225.88 391.88 226.42 387.46 C 228.13 384.58 231.69 383.73 234.65 382.72 C 238.95 381.57 243.12 380.00 247.10 378.01 Z" fill="#5b819c" opacity="1.00" stroke="#5b819c" stroke-width="0.25" data-index="61"></path>
<path d="M 228.79 382.51 C 234.81 380.70 240.93 379.21 247.10 378.01 C 243.12 380.00 238.95 381.57 234.65 382.72 C 231.69 383.73 228.13 384.58 226.42 387.46 C 225.88 391.88 228.31 396.03 230.21 399.86 C 232.05 403.65 236.34 404.91 240.11 405.86 C 247.32 407.54 254.48 409.94 261.96 409.97 C 271.36 410.00 280.80 410.35 290.16 409.28 C 296.46 408.57 302.82 408.86 309.06 409.91 C 316.78 411.23 324.65 410.75 332.43 411.50 C 336.81 411.88 341.30 412.19 345.62 411.09 C 346.33 411.63 347.74 412.71 348.44 413.25 C 339.31 414.20 330.15 413.49 321.01 413.08 C 310.98 413.30 301.02 411.67 291.00 412.00 C 280.28 412.31 269.53 411.56 258.84 412.69 C 248.45 413.76 238.05 412.37 227.72 411.32 C 220.97 410.56 214.11 412.49 207.44 410.77 C 202.49 409.53 197.46 408.31 192.32 408.59 C 189.93 408.38 186.57 409.32 185.35 406.58 C 184.15 404.53 183.15 400.60 186.10 399.55 C 189.42 398.16 192.73 396.73 195.72 394.70 C 200.42 391.47 207.07 392.36 210.91 387.67 C 216.88 386.00 222.86 384.35 228.79 382.51 Z" fill="#5787a6" opacity="1.00" stroke="#5787a6" stroke-width="0.25" data-index="62"></path>
<path d="M 195.98 388.97 C 207.48 386.50 218.70 382.92 230.04 379.85 C 229.59 380.72 229.18 381.61 228.79 382.51 C 222.86 384.35 216.88 386.00 210.91 387.67 C 180.18 395.55 149.58 403.96 118.84 411.76 C 116.88 412.16 114.92 412.49 112.95 412.80 C 112.25 412.90 110.84 413.10 110.14 413.20 C 110.78 412.47 111.43 411.75 112.08 411.04 C 119.16 409.46 126.40 408.31 133.11 405.43 C 139.49 404.45 145.72 402.84 151.90 401.03 C 166.71 397.43 181.23 392.76 195.98 388.97 Z" fill="#5fe2f5" opacity="1.00" stroke="#5fe2f5" stroke-width="0.25" data-index="63"></path>
<path d="M 71.46 393.27 C 78.05 390.91 84.52 388.21 91.20 386.09 C 85.42 390.33 78.18 391.96 72.62 396.53 C 64.67 399.41 56.98 402.92 49.26 406.34 C 52.01 404.46 55.01 402.52 56.26 399.27 C 61.23 397.02 66.30 395.02 71.46 393.27 Z" fill="#165889" opacity="1.00" stroke="#165889" stroke-width="0.25" data-index="64"></path>
<path d="M 118.84 411.76 C 149.58 403.96 180.18 395.55 210.91 387.67 C 207.07 392.36 200.42 391.47 195.72 394.70 C 192.73 396.73 189.42 398.16 186.10 399.55 C 183.15 400.60 184.15 404.53 185.35 406.58 C 186.57 409.32 189.93 408.38 192.32 408.59 C 197.46 408.31 202.49 409.53 207.44 410.77 C 214.11 412.49 220.97 410.56 227.72 411.32 C 238.05 412.37 248.45 413.76 258.84 412.69 C 269.53 411.56 280.28 412.31 291.00 412.00 C 301.02 411.67 310.98 413.30 321.01 413.08 C 330.15 413.49 339.31 414.20 348.44 413.25 C 352.45 413.04 356.39 413.87 360.28 414.68 C 354.60 414.90 348.94 415.47 343.32 416.34 C 339.89 416.02 336.44 415.82 333.00 415.85 C 284.66 415.61 236.33 415.69 187.99 415.72 C 183.86 415.73 179.75 416.07 175.63 416.27 C 156.47 414.86 137.19 417.16 118.07 415.21 C 118.31 414.05 118.57 412.90 118.84 411.76 Z" fill="#4e8db1" opacity="1.00" stroke="#4e8db1" stroke-width="0.25" data-index="65"></path>
<path d="M 36.78 405.98 C 43.33 403.90 49.75 401.46 56.26 399.27 C 55.01 402.52 52.01 404.46 49.26 406.34 C 48.17 407.00 47.10 407.69 46.01 408.36 C 42.91 410.06 39.40 410.80 36.01 411.71 C 36.28 409.79 36.53 407.88 36.78 405.98 Z" fill="#14497c" opacity="1.00" stroke="#14497c" stroke-width="0.25" data-index="66"></path>
<path d="M 121.42 405.63 C 127.22 403.91 132.93 401.80 138.89 400.67 C 136.90 402.17 135.05 403.86 133.11 405.43 C 126.40 408.31 119.16 409.46 112.08 411.04 C 106.78 412.42 101.43 413.67 95.95 414.03 C 97.27 412.84 98.87 412.01 100.59 411.56 C 107.52 409.56 114.55 407.87 121.42 405.63 Z" fill="#27bfc5" opacity="1.00" stroke="#27bfc5" stroke-width="0.25" data-index="67"></path>
<path d="M 436.75 411.58 C 446.13 410.07 455.28 407.45 464.31 404.53 C 465.62 405.46 466.34 406.95 467.29 408.23 C 466.34 408.33 465.40 408.42 464.47 408.50 C 454.52 408.59 445.14 412.17 435.76 415.03 C 416.07 414.92 396.39 415.32 376.71 414.57 C 382.28 413.77 387.82 412.74 393.42 412.09 C 394.04 412.02 395.28 411.89 395.91 411.82 C 404.27 412.11 412.59 410.81 420.95 411.15 C 426.19 411.62 431.49 412.40 436.75 411.58 Z" fill="#7aacbe" opacity="1.00" stroke="#7aacbe" stroke-width="0.25" data-index="68"></path>
<path d="M 361.99 407.88 C 368.54 407.52 375.10 407.01 381.60 406.09 C 385.61 407.95 389.56 409.92 393.42 412.09 C 387.82 412.74 382.28 413.77 376.71 414.57 C 371.24 414.83 365.75 414.90 360.28 414.68 C 356.39 413.87 352.45 413.04 348.44 413.25 C 347.74 412.71 346.33 411.63 345.62 411.09 L 346.36 410.80 C 347.60 410.27 348.83 409.71 350.09 409.23 C 353.97 408.20 358.00 408.08 361.99 407.88 Z" fill="#7197a8" opacity="1.00" stroke="#7197a8" stroke-width="0.25" data-index="69"></path>
<path d="M 435.76 415.03 C 445.14 412.17 454.52 408.59 464.47 408.50 C 458.06 411.84 450.93 413.51 444.08 415.66 C 442.93 415.84 441.79 416.01 440.65 416.17 C 439.01 415.80 437.39 415.38 435.76 415.03 Z" fill="#3797c0" opacity="1.00" stroke="#3797c0" stroke-width="0.25" data-index="70"></path>
<path d="M 95.95 414.03 C 101.43 413.67 106.78 412.42 112.08 411.04 C 111.43 411.75 110.78 412.47 110.14 413.20 C 110.84 413.10 112.25 412.90 112.95 412.80 C 112.25 413.56 111.54 414.34 110.83 415.11 C 110.98 415.72 111.27 416.95 111.42 417.56 C 115.03 417.95 118.65 418.38 122.28 418.56 C 112.34 420.23 102.25 420.79 92.18 420.18 C 90.66 419.40 89.18 418.55 87.70 417.71 C 90.42 416.42 93.14 415.12 95.95 414.03 Z" fill="#0dd2ea" opacity="1.00" stroke="#0dd2ea" stroke-width="0.25" data-index="71"></path>
<path d="M 112.95 412.80 C 114.92 412.49 116.88 412.16 118.84 411.76 C 118.57 412.90 118.31 414.05 118.07 415.21 C 137.19 417.16 156.47 414.86 175.63 416.27 C 179.06 416.80 182.49 417.36 185.97 417.34 C 199.31 417.20 212.66 417.35 226.00 417.24 C 235.80 417.29 245.62 416.86 255.41 417.53 L 254.58 417.58 C 250.72 417.82 246.87 418.21 243.00 418.20 C 202.76 418.08 162.52 418.32 122.28 418.56 C 118.65 418.38 115.03 417.95 111.42 417.56 C 111.27 416.95 110.98 415.72 110.83 415.11 C 111.54 414.34 112.25 413.56 112.95 412.80 Z" fill="#2da3c8" opacity="1.00" stroke="#2da3c8" stroke-width="0.25" data-index="72"></path>
<path d="M 80.37 417.59 C 85.38 415.87 90.48 412.99 95.95 414.03 C 93.14 415.12 90.42 416.42 87.70 417.71 C 89.18 418.55 90.66 419.40 92.18 420.18 C 90.69 420.12 89.19 420.05 87.70 419.98 C 85.20 419.78 82.70 419.57 80.19 419.44 C 80.24 418.98 80.32 418.05 80.37 417.59 Z" fill="#5cc9c5" opacity="1.00" stroke="#5cc9c5" stroke-width="0.25" data-index="73"></path>
<path d="M 343.32 416.34 C 348.94 415.47 354.60 414.90 360.28 414.68 C 365.75 414.90 371.24 414.83 376.71 414.57 C 396.39 415.32 416.07 414.92 435.76 415.03 C 437.39 415.38 439.01 415.80 440.65 416.17 C 439.57 416.40 438.50 416.66 437.44 416.93 C 429.15 414.55 420.49 415.99 412.01 415.88 C 405.24 415.81 398.45 415.90 391.72 416.73 C 380.15 417.20 368.57 416.81 357.00 417.03 C 352.75 417.13 348.49 416.90 344.27 416.44 L 343.32 416.34 Z" fill="#3794b4" opacity="1.00" stroke="#3794b4" stroke-width="0.25" data-index="74"></path>
<path d="M 175.63 416.27 C 179.75 416.07 183.86 415.73 187.99 415.72 C 236.33 415.69 284.66 415.61 333.00 415.85 C 336.44 415.82 339.89 416.02 343.32 416.34 L 344.27 416.44 C 331.23 417.92 318.08 416.86 305.00 417.21 C 288.47 417.67 271.92 416.50 255.41 417.53 C 245.62 416.86 235.80 417.29 226.00 417.24 C 212.66 417.35 199.31 417.20 185.97 417.34 C 182.49 417.36 179.06 416.80 175.63 416.27 Z" fill="#1982ab" opacity="1.00" stroke="#1982ab" stroke-width="0.25" data-index="75"></path>
<path d="M 391.72 416.73 C 398.45 415.90 405.24 415.81 412.01 415.88 C 420.49 415.99 429.15 414.55 437.44 416.93 C 422.20 416.90 406.94 417.78 391.72 416.73 Z" fill="#1797c0" opacity="1.00" stroke="#1797c0" stroke-width="0.25" data-index="76"></path>
<path d="M 440.65 416.17 C 441.79 416.01 442.93 415.84 444.08 415.66 C 439.20 419.09 432.93 419.33 427.20 419.98 C 420.79 419.98 414.38 420.11 407.98 420.31 C 404.38 420.51 400.92 419.43 397.60 418.20 C 410.85 416.73 424.39 420.41 437.44 416.93 C 438.50 416.66 439.57 416.40 440.65 416.17 Z" fill="#7de3f7" opacity="1.00" stroke="#7de3f7" stroke-width="0.25" data-index="77"></path>
<path d="M 255.41 417.53 C 271.92 416.50 288.47 417.67 305.00 417.21 C 318.08 416.86 331.23 417.92 344.27 416.44 C 348.49 416.90 352.75 417.13 357.00 417.03 C 368.57 416.81 380.15 417.20 391.72 416.73 C 406.94 417.78 422.20 416.90 437.44 416.93 C 424.39 420.41 410.85 416.73 397.60 418.20 C 388.10 417.10 378.53 417.66 369.00 417.54 C 342.66 417.69 316.33 417.51 290.00 417.67 C 278.19 417.92 266.38 417.77 254.58 417.58 L 255.41 417.53 Z" fill="#32c2f2" opacity="1.00" stroke="#32c2f2" stroke-width="0.25" data-index="78"></path>
<path d="M 122.28 418.56 C 162.52 418.32 202.76 418.08 243.00 418.20 C 246.87 418.21 250.72 417.82 254.58 417.58 C 266.38 417.77 278.19 417.92 290.00 417.67 C 316.33 417.51 342.66 417.69 369.00 417.54 C 378.53 417.66 388.10 417.10 397.60 418.20 C 400.92 419.43 404.38 420.51 407.98 420.31 C 414.38 420.11 420.79 419.98 427.20 419.98 C 424.18 420.60 421.09 420.83 418.00 420.78 C 362.00 420.66 306.00 420.45 250.00 420.80 C 229.33 421.05 208.64 420.20 188.00 421.49 C 174.34 420.79 160.67 421.50 147.00 421.41 C 132.34 421.43 117.68 421.60 103.01 421.46 C 97.89 421.37 92.58 421.87 87.70 419.98 C 89.19 420.05 90.69 420.12 92.18 420.18 C 102.25 420.79 112.34 420.23 122.28 418.56 Z" fill="#a4ebf9" opacity="1.00" stroke="#a4ebf9" stroke-width="0.25" data-index="79"></path>
</svg>